<svg width="48" height="48" viewBox="0 0 48 48" fill="none" xmlns="http://www.w3.org/2000/svg">
<path d="M23.5025 46.1166C35.9918 46.1166 46.1164 35.9921 46.1164 23.5028C46.1164 11.0135 35.9918 0.888916 23.5025 0.888916C11.0132 0.888916 0.888672 11.0135 0.888672 23.5028C0.888672 35.9921 11.0132 46.1166 23.5025 46.1166Z" stroke="#7FB3E8"/>
<path d="M24.3681 9.40961C23.6739 8.71535 22.5482 8.71535 21.8539 9.40961L10.5402 20.7234C9.84597 21.4176 9.84597 22.5431 10.5402 23.2375C11.2345 23.9318 12.3601 23.9318 13.0544 23.2375L23.111 13.1808L33.1677 23.2375C33.862 23.9318 34.9875 23.9318 35.6819 23.2375C36.3761 22.5431 36.3761 21.4176 35.6819 20.7234L24.3681 9.40961ZM21.3332 35.5556C21.3332 36.5374 22.1291 37.3334 23.111 37.3334C24.0929 37.3334 24.8888 36.5374 24.8888 35.5556H21.3332ZM21.3332 10.6667V35.5556H24.8888V10.6667H21.3332Z" fill="#7FB3E8"/>
</svg>
