<svg width="100" height="100" viewBox="0 0 100 100" fill="none" xmlns="http://www.w3.org/2000/svg">
<path d="M20 1.5H80C90.2173 1.5 98.5 9.78273 98.5 20V80C98.5 90.2173 90.2173 98.5 80 98.5H20C9.78273 98.5 1.5 90.2173 1.5 80V20C1.5 9.78273 9.78273 1.5 20 1.5Z" fill="white" stroke="#7FB3E8" stroke-width="3"/>
<path fill-rule="evenodd" clip-rule="evenodd" d="M49.861 41.1953C44.026 41.1953 39.2957 45.9256 39.2957 51.7606C39.2957 57.5957 44.026 62.326 49.861 62.326C55.6961 62.326 60.4264 57.5957 60.4264 51.7606C60.4264 45.9256 55.6961 41.1953 49.861 41.1953ZM35.7739 51.7606C35.7739 43.9805 42.0809 37.6735 49.861 37.6735C57.6411 37.6735 63.9482 43.9805 63.9482 51.7606C63.9482 59.5407 57.6411 65.8478 49.861 65.8478C42.0809 65.8478 35.7739 59.5407 35.7739 51.7606Z" fill="#7FB3E8"/>
<path fill-rule="evenodd" clip-rule="evenodd" d="M45.4585 30.6302C44.35 30.6302 43.3062 31.1521 42.6411 32.039L40.528 34.8564C39.1978 36.63 37.1102 37.6738 34.8932 37.6738H30.491C27.5734 37.6738 25.2083 40.0389 25.2083 42.9565V64.0871C25.2083 67.0047 27.5734 69.3698 30.491 69.3698H69.2305C72.1481 69.3698 74.5132 67.0047 74.5132 64.0871V42.9565C74.5132 40.0389 72.1481 37.6738 69.2305 37.6738H64.8283C62.6113 37.6738 60.5237 36.63 59.1935 34.8564L57.0804 32.039C56.4153 31.1521 55.3715 30.6302 54.263 30.6302H45.4585ZM39.8237 29.9259C41.1539 28.1523 43.2415 27.1085 45.4585 27.1085H54.263C56.48 27.1085 58.5676 28.1523 59.8978 29.9259L62.0109 32.7433C62.676 33.6301 63.7198 34.152 64.8283 34.152H69.2305C74.0931 34.152 78.035 38.0939 78.035 42.9565V64.0871C78.035 68.9497 74.0931 72.8916 69.2305 72.8916H30.491C25.6284 72.8916 21.6865 68.9497 21.6865 64.0871V42.9565C21.6865 38.0939 25.6284 34.152 30.491 34.152H34.8932C36.0017 34.152 37.0455 33.6301 37.7106 32.7433L39.8237 29.9259Z" fill="#7FB3E8"/>
</svg>
