<svg width="100" height="100" viewBox="0 0 100 100" fill="none" xmlns="http://www.w3.org/2000/svg">
<path d="M20 1.5H80C90.2173 1.5 98.5 9.78273 98.5 20V80C98.5 90.2173 90.2173 98.5 80 98.5H20C9.78273 98.5 1.5 90.2173 1.5 80V20C1.5 9.78273 9.78273 1.5 20 1.5Z" fill="white" stroke="#7FB3E8" stroke-width="3"/>
<path fill-rule="evenodd" clip-rule="evenodd" d="M49.861 41.1953C44.026 41.1953 39.2957 45.9256 39.2957 51.7606C39.2957 57.5957 44.026 62.326 49.861 62.326C55.6961 62.326 60.4264 57.5957 60.4264 51.7606C60.4264 45.9256 55.6961 41.1953 49.861 41.1953ZM35.7739 51.7606C35.7739 43.9805 42.0809 37.6735 49.861 37.6735C57.6411 37.6735 63.9482 43.9805 63.9482 51.7606C63.9482 59.5407 57.6411 65.8478 49.861 65.8478C42.0809 65.8478 35.7739 59.5407 35.7739 51.7606Z" fill="#7FB3E8"/>
<rect x="32" y="29" width="44" height="32" rx="3" fill="white" stroke="#7FB3E8" stroke-width="4"/>
<rect x="24" y="35" width="48" height="36" rx="5" fill="white"/>
<rect x="24" y="39" width="44" height="32" rx="3" fill="white" stroke="#7FB3E8" stroke-width="4"/>
<path d="M24 65.5L33.5 56.5L39.5 60.5L53 48.5L68 62" stroke="#7FB3E8" stroke-width="3" stroke-linejoin="round"/>
<circle cx="37.5" cy="48.5" r="3.5" fill="white" stroke="#7FB3E8" stroke-width="3"/>
</svg>
