<?xml version="1.0" encoding="UTF-8"?>
<svg id="_레이어_2" data-name="레이어 2" xmlns="http://www.w3.org/2000/svg" viewBox="0 0 573 600">
  <defs>
    <style>
      .cls-1 {
        fill: #6fb4ec;
      }
    </style>
  </defs>
  <g id="_레이어_1-2" data-name="레이어 1">
    <path class="cls-1" d="m299.63,600c-2.23,0-4.37-.02-6.44-.08-50.01-1.07-99.48-14.92-143.04-40.05-45.04-25.98-82.65-63.26-108.76-107.8-.22-.36-.43-.73-.64-1.1-.21-.36-.42-.72-.63-1.07l-.26-.45c-.18-.31-.35-.61-.51-.92C13.96,403.86.35,353.07,0,301.68c-.35-52.95,13.52-105.33,40.1-151.47,26.07-45.26,63.55-83.02,108.39-109.2C192,15.62,241.6,1.48,291.95.1h.12c5.32-.13,10.05-.14,14.47-.03,50.02,1.07,99.48,14.92,143.03,40.05,45.04,25.98,82.65,63.26,108.76,107.8.21.35.42.71.63,1.07.21.37.43.73.64,1.1l.27.47c.17.3.35.6.5.91,8.22,14.84,12.57,31.66,12.59,48.63.01,17.49-4.62,34.79-13.41,50.03-16.45,28.59-45.17,46.85-77.7,49.75,14.37,1.31,28.43,5.75,41.01,13h0c47.86,27.62,64.35,89.03,36.76,136.89-26.07,45.26-63.55,83.02-108.39,109.2-43.49,25.39-93.1,39.54-143.45,40.91h-.12c-2.83.07-5.5.1-8.04.1Zm.48-599.25c-2.53,0-5.18.03-8,.1h-.12c-50.23,1.37-99.71,15.49-143.09,40.81-44.73,26.11-82.11,63.78-108.12,108.93C14.25,196.61.41,248.86.76,301.68c.34,51.27,13.92,101.92,39.26,146.5.16.31.33.61.5.91l.26.45c.21.35.42.71.63,1.07.21.37.42.73.64,1.09,26.05,44.44,63.56,81.62,108.49,107.53,43.45,25.07,92.78,38.88,142.67,39.95,4.41.11,9.13.1,14.43-.02h.12c50.23-1.37,99.71-15.49,143.09-40.81,44.73-26.11,82.11-63.78,108.12-108.93,27.39-47.51,11.02-108.46-36.48-135.88h0c-14.34-8.27-30.63-12.86-47.09-13.28v-.75c34.89-.92,66.11-19.52,83.51-49.75,17.58-30.49,17.88-67.1.81-97.94-.15-.3-.32-.59-.49-.88l-.27-.47c-.21-.35-.43-.73-.64-1.1-.21-.36-.41-.71-.62-1.06-26.04-44.44-63.56-81.62-108.49-107.53C405.75,15.7,356.42,1.89,306.53.82c-2.07-.05-4.2-.08-6.43-.08Zm-.38,399.53c-17.35,0-34.47-4.54-49.89-13.44-14.83-8.55-27.28-20.81-36.02-35.46-18.55-31.18-18.83-70.05-.74-101.43,13.42-23.3,35.13-39.93,61.11-46.83,25.75-6.83,52.64-3.26,75.72,10.05,14.83,8.55,27.28,20.81,36.02,35.46,8.76,15.67,21.61,28.68,37.18,37.66,14.34,8.27,30.63,12.86,47.09,13.28v.75c-34.88.92-66.11,19.52-83.53,49.75h0c-13.42,23.3-35.13,39.93-61.11,46.83-8.54,2.27-17.22,3.39-25.83,3.39Zm.3-199.8c-8.55,0-17.15,1.11-25.64,3.36-25.79,6.84-47.33,23.35-60.65,46.47-17.95,31.15-17.67,69.73.74,100.68,8.67,14.54,21.03,26.71,35.75,35.19,22.9,13.21,49.59,16.75,75.15,9.98,25.79-6.84,47.33-23.35,60.65-46.47h0c16.47-28.58,45.2-46.85,77.72-49.76-14.37-1.31-28.43-5.75-41.01-13-15.69-9.04-28.64-22.16-37.46-37.93-8.67-14.53-21.03-26.7-35.74-35.18-15.3-8.83-32.3-13.34-49.51-13.34Zm172.4,99.85c-.75,0-1.47,0-2.13-.02v-.75c1.77-.08,3.53-.07,5.02-.04v.75c-.98.05-1.96.06-2.89.06Z"/>
  </g>
</svg>