<?xml version="1.0" encoding="UTF-8"?>
<svg id="_레이어_2" data-name="레이어 2" xmlns="http://www.w3.org/2000/svg" xmlns:xlink="http://www.w3.org/1999/xlink" viewBox="0 0 179.4 179.43">
  <defs>
    <style>
      .cls-1 {
        fill: none;
      }

      .cls-2 {
        clip-path: url(#clippath);
      }

      .cls-3 {
        fill: #fff;
        stroke: #6fb4ec;
        stroke-miterlimit: 10;
        stroke-width: .48px;
      }

      .cls-4 {
        fill: url(#_무제_그라디언트_3);
      }
    </style>
    <clipPath id="clippath">
      <path class="cls-1" d="m89.7,179.43c49.54,0,89.7-40.17,89.7-89.71S139.24,0,89.7,0,0,40.17,0,89.71s40.16,89.71,89.7,89.71Z"/>
    </clipPath>
    <linearGradient id="_무제_그라디언트_3" data-name="무제 그라디언트 3" x1="-286.56" y1="398.01" x2="44.13" y2="398.01" gradientTransform="translate(287 536.12) scale(1 -1)" gradientUnits="userSpaceOnUse">
      <stop offset="0" stop-color="#70b2ea"/>
      <stop offset=".14" stop-color="#77b6eb"/>
      <stop offset=".36" stop-color="#8dc4ef"/>
      <stop offset=".64" stop-color="#b1d9f5"/>
      <stop offset=".95" stop-color="#e2f7fd"/>
      <stop offset="1" stop-color="#ecfdff"/>
    </linearGradient>
  </defs>
  <g id="_레이어_1-2" data-name="레이어 1">
    <g class="cls-2">
      <path class="cls-4" d="m161.85,227.76c15.07,28.95,43.72,46.24,74.1,48.12.93.02,1.87.06,2.78.13.06,0,.08-.02.11,0,14.8.45,29.91-2.8,43.98-10.11,43.94-22.89,61.03-77.06,38.15-121.01C275.27,57.06,187.91,5.02,95.69.32c-.45-.04-.93-.06-1.4-.08-.76-.02-1.51-.06-2.27-.08-14.58-.32-29.44,2.93-43.28,10.12C4.8,33.18-12.29,87.35,10.59,131.32c15.13,29.03,43.87,46.35,74.35,48.16,31.39.98,61.35,18.41,76.9,48.28h.02Z"/>
    </g>
    <path class="cls-3" d="m130.22,76.3c0,3.48-.64,5.82-2.1,7.86-.79,1.11-1.81,2.08-2.85,2.98-1,.89-1.28,2.36-.13,3.31.96.79,1.89,1.61,2.62,2.63.89,1.23,1.64,2.53,1.96,4.02.23,1.04.49,2.08.49,3.12,0,1.13-.25,2.28-.45,3.42-.23,1.25-.81,2.38-1.51,3.44-1.02,1.61-2.36,2.89-3.97,3.89-1.11.7-2.32,1.27-3.61,1.47-1.25.23-2.55.26-3.83.26-2.21,0-4.25-.64-6.1-1.79-1.83-1.13-3.19-2.72-4.1-4.7-.49-1.08-.87-2.19-.98-3.38-.09-.98-.23-1.94-.38-2.91-.11-.68-.59-1.13-1.21-1.32-.43-.13-.92-.17-1.4-.17h-27.84c-.53,0-1.1.17-1.57.4-.74.38-.87,1.15-.96,1.89-.09.81-.08,1.64-.23,2.46-.3,1.6-.85,3.13-1.76,4.51-1.17,1.76-2.72,3.08-4.65,3.93-1.57.7-3.21,1.11-4.91,1.09-1.15,0-2.32-.02-3.46-.24-1.96-.38-3.72-1.27-5.27-2.55-1.66-1.4-2.91-3.08-3.68-5.12-.68-1.79-.94-3.66-.74-5.59.36-3.32,1.79-6.04,4.36-8.2.47-.4.93-.89,1.21-1.42.45-.81.15-1.76-.62-2.36-1.47-1.15-2.72-2.51-3.61-4.17-1.19-2.27-1.62-4.67-1.34-7.21.23-2.12.98-4.04,2.23-5.76,1.38-1.91,3.13-3.34,5.31-4.25,1.36-.57,2.79-.87,4.27-.93,2.23-.09,4.34.34,6.31,1.4,2.72,1.47,4.65,3.65,5.8,6.54.59,1.47.76,3,.83,4.55.06,1.15.93,1.96,2.13,1.98h28.27c.85,0,1.64-.08,2.21-.83.4-.53.43-1.13.43-1.72.04-2.32.74-4.42,2-6.35,1.38-2.1,3.25-3.59,5.55-4.59,2-.87,4.1-1.08,6.23-.91,1.34.11,2.62.53,3.85,1.11,2.55,1.23,4.46,3.08,5.78,5.57.93,1.76,1.34,3.65,1.36,4.65h.02Z"/>
  </g>
</svg>